<svg width="1200" height="900" viewBox="0 0 1200 900" fill="none" xmlns="http://www.w3.org/2000/svg">
  <rect width="1200" height="900" rx="48" fill="#FFF7EF"/>
  <rect x="44" y="44" width="1112" height="812" rx="36" fill="url(#bg2)"/>
  <rect x="108" y="122" width="984" height="656" rx="28" fill="#FFF9F3" fill-opacity="0.9"/>
  <rect x="150" y="170" width="900" height="566" rx="26" fill="#F8D7BE"/>
  <rect x="150" y="534" width="900" height="202" rx="0" fill="#D8B395"/>
  <path d="M132 514L594 286L1068 514H132Z" fill="#D86D1E"/>
  <path d="M228 514L594 336L972 514H228Z" fill="#F2B06E"/>
  <rect x="236" y="566" width="220" height="138" rx="18" fill="#A54D16"/>
  <rect x="500" y="566" width="220" height="138" rx="18" fill="#A54D16"/>
  <rect x="764" y="566" width="150" height="138" rx="18" fill="#7A310B"/>
  <rect x="944" y="566" width="44" height="138" rx="12" fill="#552003"/>
  <rect x="812" y="220" width="150" height="106" rx="20" fill="#1E2326"/>
  <rect x="830" y="238" width="114" height="70" rx="12" fill="#2A3136"/>
  <circle cx="887" cy="273" r="12" fill="#EC873A"/>
  <path d="M224 468C296 404 380 374 476 378C560 381 634 414 698 478" stroke="#5F2504" stroke-width="18" stroke-linecap="round"/>
  <rect x="148" y="86" width="242" height="64" rx="20" fill="#FFF9F3" fill-opacity="0.92"/>
  <text x="180" y="126" fill="#641E16" font-family="Arial, sans-serif" font-size="30" font-weight="700">Aqilla Guest House 2</text>
  <text x="164" y="810" fill="#FFF9F3" font-family="Arial, sans-serif" font-size="34" font-weight="700">2 Kamar • 2 Kamar Mandi • Smart TV</text>
  <text x="164" y="850" fill="#FFF9F3" font-family="Arial, sans-serif" font-size="24" font-weight="500">Ilustrasi placeholder untuk katalog rumah</text>
  <defs>
    <linearGradient id="bg2" x1="92" y1="92" x2="1104" y2="842" gradientUnits="userSpaceOnUse">
      <stop stop-color="#F7D0AA"/>
      <stop offset="0.52" stop-color="#EC873A"/>
      <stop offset="1" stop-color="#5F2504"/>
    </linearGradient>
  </defs>
</svg>
